<?xml version="1.0" encoding="UTF-8" standalone="no"?>
<!DOCTYPE svg PUBLIC "-//W3C//DTD SVG 1.1//EN" "http://www.w3.org/Graphics/SVG/1.1/DTD/svg11.dtd">
<svg width="100%" height="100%" viewBox="0 0 200 200" version="1.1" xmlns="http://www.w3.org/2000/svg" xmlns:xlink="http://www.w3.org/1999/xlink" xml:space="preserve" xmlns:serif="http://www.serif.com/" style="fill-rule:evenodd;clip-rule:evenodd;stroke-linecap:square;stroke-linejoin:round;stroke-miterlimit:1;">
    <g transform="matrix(1.07324,0,0,1.07324,22.7011,-2.68576)">
        <g id="New">
            <g>
                <g transform="matrix(0.978586,0,0,1.14527,0.722216,-31.1614)">
                    <path d="M72.862,168.119L33.726,128.984" style="fill:none;stroke:rgb(167,214,242);stroke-width:4.18px;"/>
                    <g transform="matrix(-1,0,0,1,145.724,0)">
                        <path d="M72.862,168.119L33.726,128.984" style="fill:none;stroke:rgb(167,214,242);stroke-width:4.18px;"/>
                    </g>
                </g>
                <g transform="matrix(0.978586,0,0,1.14527,0.722216,-8.75131)">
                    <path d="M72.862,168.119L33.726,128.984" style="fill:none;stroke:rgb(167,214,242);stroke-width:4.18px;"/>
                    <g transform="matrix(-1,0,0,1,145.724,0)">
                        <path d="M72.862,168.119L33.726,128.984" style="fill:none;stroke:rgb(167,214,242);stroke-width:4.18px;"/>
                    </g>
                </g>
                <g transform="matrix(0.978586,0,0,-1.14527,0.722216,243.75)">
                    <path d="M72.862,91.49L33.726,131.231L111.997,131.231L72.862,91.49ZM43.501,127.343L72.862,97.528L102.223,127.343L43.501,127.343Z" style="fill:rgb(167,214,242);"/>
                </g>
                <g transform="matrix(0.97256,0,0,0.97256,4.03742,-0.127627)">
                    <path d="M70.158,5.996L70.413,5.998L70.666,6.002L70.92,6.008L71.173,6.015L71.425,6.024L71.677,6.034L71.929,6.046L72.18,6.06L72.431,6.075L72.682,6.092L72.932,6.11L73.182,6.13L73.431,6.151L73.679,6.174L73.928,6.198L74.176,6.224L74.423,6.252L74.67,6.281L74.916,6.312L75.162,6.344L75.408,6.377L75.653,6.412L75.898,6.449L76.142,6.487L76.385,6.527L76.628,6.568L76.871,6.611L77.113,6.655L77.354,6.7L77.595,6.747L77.836,6.796L78.076,6.846L78.315,6.897L78.554,6.95L78.792,7.004L79.03,7.06L79.268,7.117L79.504,7.176L79.74,7.236L79.976,7.297L80.211,7.36L80.445,7.424L80.679,7.49L80.912,7.557L81.145,7.625L81.377,7.695L81.608,7.767L81.839,7.839L82.069,7.913L82.299,7.989L82.528,8.065L82.756,8.144L82.984,8.223L83.211,8.304L83.438,8.386L83.663,8.47L83.889,8.554L84.113,8.641L84.337,8.728L84.56,8.817L84.783,8.907L85.004,8.999L85.226,9.092L85.446,9.186L85.666,9.281L85.885,9.378L86.103,9.476L86.321,9.575L86.538,9.676L86.754,9.777L86.97,9.881L87.184,9.985L87.399,10.091L87.612,10.197L87.824,10.306L88.036,10.415L88.247,10.526L88.458,10.638L88.667,10.751L88.876,10.865L89.084,10.981L89.292,11.097L89.498,11.215L89.704,11.334L89.909,11.455L90.113,11.576L90.316,11.699L90.519,11.823L90.721,11.948L90.922,12.075L91.122,12.202L91.321,12.331L91.52,12.461L91.717,12.592L91.914,12.724L92.11,12.857L92.305,12.992L92.5,13.127L92.693,13.264L92.886,13.402L93.077,13.541L93.268,13.681L93.458,13.822L93.647,13.965L93.836,14.108L94.023,14.253L94.209,14.398L94.395,14.545L94.579,14.693L94.763,14.842L94.946,14.992L95.128,15.143L95.309,15.295L95.489,15.448L95.668,15.602L95.846,15.758L96.023,15.914L96.2,16.071L96.375,16.23L96.549,16.389L96.723,16.55L96.895,16.711L97.067,16.874L97.237,17.037L97.407,17.202L97.575,17.367L97.743,17.534L97.91,17.702L98.075,17.87L98.24,18.04L98.403,18.21L98.566,18.382L98.727,18.554L98.888,18.728L99.047,18.902L99.206,19.077L99.363,19.254L99.519,19.431L99.675,19.609L99.829,19.788L99.982,19.968L100.134,20.149L100.285,20.331L100.435,20.514L100.584,20.698L100.732,20.882L100.879,21.068L101.024,21.254L101.169,21.441L101.312,21.63L101.455,21.819L101.596,22.009L101.736,22.2L101.875,22.391L102.013,22.584L102.15,22.777L102.285,22.972L102.42,23.167L102.553,23.363L102.685,23.56L102.816,23.757L102.946,23.956L103.075,24.155L103.202,24.355L103.329,24.556L103.454,24.758L103.578,24.961L103.701,25.164L103.822,25.368L103.943,25.573L104.062,25.779L104.18,25.985L104.296,26.193L104.412,26.401L104.526,26.61L104.639,26.819L104.751,27.03L104.862,27.241L104.971,27.453L105.08,27.665L105.186,27.878L105.292,28.093L105.396,28.307L105.5,28.523L105.601,28.739L105.702,28.956L105.801,29.174L105.899,29.392L105.996,29.611L106.091,29.831L106.185,30.051L106.278,30.273L106.37,30.494L106.46,30.717L106.549,30.94L106.636,31.164L106.723,31.388L106.807,31.614L106.891,31.839L106.973,32.066L107.054,32.293L107.133,32.521L107.212,32.749L107.288,32.978L107.364,33.208L107.438,33.438L107.51,33.669L107.582,33.9L107.652,34.132L107.72,34.365L107.787,34.598L107.853,34.832L107.917,35.066L107.98,35.301L108.041,35.537L108.101,35.773L108.16,36.009L108.217,36.247L108.273,36.485L108.327,36.723L108.38,36.962L108.431,37.201L108.481,37.441L108.53,37.682L108.577,37.923L108.622,38.164L108.666,38.406L108.709,38.649L108.75,38.892L108.79,39.135L108.828,39.379L108.865,39.624L108.9,39.869L108.933,40.115L108.965,40.361L108.996,40.607L109.025,40.854L109.053,41.101L109.079,41.349L109.103,41.598L109.126,41.846L109.147,42.095L109.167,42.345L109.185,42.595L109.202,42.846L109.217,43.097L109.231,43.348L109.243,43.6L109.253,43.852L109.262,44.104L109.269,44.357L109.275,44.611L109.279,44.864L109.281,45.119L109.282,45.373L109.281,45.627L109.279,45.882L109.275,46.135L109.269,46.389L109.262,46.642L109.253,46.894L109.243,47.146L109.231,47.398L109.217,47.649L109.202,47.9L109.185,48.151L109.167,48.401L109.147,48.651L109.126,48.9L109.103,49.148L109.079,49.397L109.053,49.645L109.025,49.892L108.996,50.139L108.965,50.385L108.933,50.631L108.9,50.877L108.865,51.122L108.828,51.367L108.79,51.611L108.75,51.854L108.709,52.097L108.666,52.34L108.622,52.582L108.577,52.823L108.53,53.064L108.481,53.305L108.431,53.545L108.38,53.784L108.327,54.023L108.273,54.261L108.217,54.499L108.16,54.737L108.101,54.973L108.041,55.209L107.98,55.445L107.917,55.68L107.853,55.914L107.787,56.148L107.72,56.381L107.652,56.614L107.582,56.846L107.51,57.077L107.438,57.308L107.364,57.538L107.288,57.768L107.212,57.997L107.133,58.225L107.054,58.453L106.973,58.68L106.891,58.907L106.807,59.132L106.723,59.358L106.636,59.582L106.549,59.806L106.46,60.029L106.37,60.252L106.278,60.473L106.185,60.695L106.091,60.915L105.996,61.135L105.899,61.354L105.801,61.572L105.702,61.79L105.601,62.007L105.5,62.223L105.396,62.439L105.292,62.653L105.186,62.868L105.08,63.081L104.971,63.293L104.862,63.505L104.751,63.716L104.639,63.927L104.526,64.136L104.412,64.345L104.296,64.553L104.18,64.761L104.062,64.967L103.943,65.173L103.822,65.378L103.701,65.582L103.578,65.785L103.454,65.988L103.329,66.19L103.202,66.391L103.075,66.591L102.946,66.79L102.816,66.989L102.685,67.186L102.553,67.383L102.42,67.579L102.285,67.774L102.15,67.969L102.013,68.162L101.875,68.355L101.736,68.546L101.596,68.737L101.455,68.927L101.312,69.116L101.169,69.305L101.024,69.492L100.879,69.678L100.732,69.864L100.584,70.048L100.435,70.232L100.285,70.415L100.134,70.597L99.982,70.778L99.829,70.958L99.675,71.137L99.519,71.315L99.363,71.492L99.206,71.669L99.047,71.844L98.888,72.018L98.727,72.192L98.566,72.364L98.403,72.536L98.24,72.706L98.075,72.876L97.91,73.044L97.743,73.212L97.575,73.379L97.407,73.544L97.237,73.709L97.067,73.872L96.895,74.035L96.723,74.196L96.549,74.357L96.375,74.516L96.2,74.675L96.023,74.832L95.846,74.988L95.668,75.144L95.489,75.298L95.309,75.451L95.128,75.603L94.946,75.754L94.763,75.904L94.579,76.053L94.395,76.201L94.209,76.348L94.023,76.493L93.836,76.638L93.647,76.781L93.458,76.924L93.268,77.065L93.077,77.205L92.886,77.344L92.693,77.482L92.5,77.619L92.305,77.754L92.11,77.889L91.914,78.022L91.717,78.154L91.52,78.285L91.321,78.415L91.122,78.544L90.922,78.671L90.721,78.798L90.519,78.923L90.316,79.047L90.113,79.17L89.909,79.291L89.704,79.412L89.498,79.531L89.292,79.649L89.084,79.765L88.876,79.881L88.667,79.995L88.458,80.108L88.247,80.22L88.036,80.331L87.824,80.44L87.612,80.549L87.399,80.655L87.184,80.761L86.97,80.865L86.754,80.969L86.538,81.07L86.321,81.171L86.103,81.27L85.885,81.368L85.666,81.465L85.446,81.56L85.226,81.654L85.004,81.747L84.783,81.839L84.56,81.929L84.337,82.018L84.113,82.105L83.889,82.192L83.663,82.276L83.438,82.36L83.211,82.442L82.984,82.523L82.756,82.602L82.528,82.681L82.299,82.757L82.069,82.833L81.839,82.907L81.608,82.979L81.377,83.051L81.145,83.121L80.912,83.189L80.679,83.256L80.445,83.322L80.211,83.386L79.976,83.449L79.74,83.51L79.504,83.57L79.268,83.629L79.03,83.686L78.792,83.742L78.554,83.796L78.315,83.849L78.076,83.9L77.836,83.95L77.595,83.999L77.354,84.046L77.113,84.091L76.871,84.135L76.628,84.178L76.385,84.219L76.142,84.259L75.898,84.297L75.653,84.334L75.408,84.369L75.162,84.402L74.916,84.434L74.67,84.465L74.423,84.494L74.176,84.522L73.928,84.548L73.679,84.572L73.431,84.595L73.182,84.616L72.932,84.636L72.682,84.654L72.431,84.671L72.18,84.686L71.929,84.7L71.677,84.712L71.425,84.722L71.173,84.731L70.92,84.738L70.666,84.744L70.413,84.748L70.158,84.75L69.904,84.751L69.65,84.75L69.395,84.748L69.142,84.744L68.888,84.738L68.635,84.731L68.383,84.722L68.131,84.712L67.879,84.7L67.628,84.686L67.377,84.671L67.126,84.654L66.876,84.636L66.626,84.616L66.377,84.595L66.129,84.572L65.88,84.548L65.632,84.522L65.385,84.494L65.138,84.465L64.892,84.434L64.646,84.402L64.4,84.369L64.155,84.334L63.91,84.297L63.666,84.259L63.423,84.219L63.18,84.178L62.937,84.135L62.695,84.091L62.454,84.046L62.213,83.999L61.972,83.95L61.732,83.9L61.493,83.849L61.254,83.796L61.016,83.742L60.778,83.686L60.54,83.629L60.304,83.57L60.068,83.51L59.832,83.449L59.597,83.386L59.363,83.322L59.129,83.256L58.896,83.189L58.663,83.121L58.431,83.051L58.2,82.979L57.969,82.907L57.739,82.833L57.509,82.757L57.28,82.681L57.052,82.602L56.824,82.523L56.597,82.442L56.37,82.36L56.145,82.276L55.919,82.192L55.695,82.105L55.471,82.018L55.248,81.929L55.025,81.839L54.804,81.747L54.582,81.654L54.362,81.56L54.142,81.465L53.923,81.368L53.705,81.27L53.487,81.171L53.27,81.07L53.054,80.969L52.838,80.865L52.624,80.761L52.409,80.655L52.196,80.549L51.984,80.44L51.772,80.331L51.561,80.22L51.35,80.108L51.141,79.995L50.932,79.881L50.724,79.765L50.516,79.649L50.31,79.531L50.104,79.412L49.899,79.291L49.695,79.17L49.492,79.047L49.289,78.923L49.087,78.798L48.886,78.671L48.686,78.544L48.487,78.415L48.288,78.285L48.091,78.154L47.894,78.022L47.698,77.889L47.503,77.754L47.308,77.619L47.115,77.482L46.922,77.344L46.731,77.205L46.54,77.065L46.35,76.924L46.161,76.781L45.972,76.638L45.785,76.493L45.599,76.348L45.413,76.201L45.229,76.053L45.045,75.904L44.862,75.754L44.68,75.603L44.499,75.451L44.319,75.298L44.14,75.144L43.962,74.988L43.785,74.832L43.608,74.675L43.433,74.516L43.259,74.357L43.085,74.196L42.913,74.035L42.741,73.872L42.571,73.709L42.401,73.544L42.233,73.379L42.065,73.212L41.898,73.044L41.733,72.876L41.568,72.706L41.405,72.536L41.242,72.364L41.081,72.192L40.92,72.018L40.761,71.844L40.602,71.669L40.445,71.492L40.289,71.315L40.133,71.137L39.979,70.958L39.826,70.778L39.674,70.597L39.523,70.415L39.373,70.232L39.224,70.048L39.076,69.864L38.929,69.678L38.784,69.492L38.639,69.305L38.496,69.116L38.353,68.927L38.212,68.737L38.072,68.546L37.933,68.355L37.795,68.162L37.658,67.969L37.523,67.774L37.388,67.579L37.255,67.383L37.123,67.186L36.992,66.989L36.862,66.79L36.733,66.591L36.606,66.391L36.479,66.19L36.354,65.988L36.23,65.785L36.107,65.582L35.986,65.378L35.865,65.173L35.746,64.967L35.628,64.761L35.512,64.553L35.396,64.345L35.282,64.136L35.169,63.927L35.057,63.716L34.946,63.505L34.837,63.293L34.728,63.081L34.622,62.868L34.516,62.653L34.412,62.439L34.308,62.223L34.207,62.007L34.106,61.79L34.007,61.572L33.909,61.354L33.812,61.135L33.717,60.915L33.623,60.695L33.53,60.473L33.438,60.252L33.348,60.029L33.259,59.806L33.172,59.582L33.085,59.358L33.001,59.132L32.917,58.907L32.835,58.68L32.754,58.453L32.675,58.225L32.596,57.997L32.52,57.768L32.444,57.538L32.37,57.308L32.298,57.077L32.226,56.846L32.156,56.614L32.088,56.381L32.021,56.148L31.955,55.914L31.891,55.68L31.828,55.445L31.767,55.209L31.707,54.973L31.648,54.737L31.591,54.499L31.535,54.261L31.481,54.023L31.428,53.784L31.377,53.545L31.327,53.305L31.278,53.064L31.231,52.823L31.186,52.582L31.142,52.34L31.099,52.097L31.058,51.854L31.018,51.611L30.98,51.367L30.943,51.122L30.908,50.877L30.875,50.631L30.843,50.385L30.812,50.139L30.783,49.892L30.755,49.645L30.729,49.397L30.705,49.148L30.682,48.9L30.661,48.651L30.641,48.401L30.623,48.151L30.606,47.9L30.591,47.649L30.577,47.398L30.565,47.146L30.555,46.894L30.546,46.642L30.539,46.389L30.533,46.135L30.529,45.882L30.527,45.627L30.526,45.373L30.527,45.119L30.529,44.864L30.533,44.611L30.539,44.357L30.546,44.104L30.555,43.852L30.565,43.6L30.577,43.348L30.591,43.097L30.606,42.846L30.623,42.595L30.641,42.345L30.661,42.095L30.682,41.846L30.705,41.598L30.729,41.349L30.755,41.101L30.783,40.854L30.812,40.607L30.843,40.361L30.875,40.115L30.908,39.869L30.943,39.624L30.98,39.379L31.018,39.135L31.058,38.892L31.099,38.649L31.142,38.406L31.186,38.164L31.231,37.923L31.278,37.682L31.327,37.441L31.377,37.201L31.428,36.962L31.481,36.723L31.535,36.485L31.591,36.247L31.648,36.009L31.707,35.773L31.767,35.537L31.828,35.301L31.891,35.066L31.955,34.832L32.021,34.598L32.088,34.365L32.156,34.132L32.226,33.9L32.298,33.669L32.37,33.438L32.444,33.208L32.52,32.978L32.596,32.749L32.675,32.521L32.754,32.293L32.835,32.066L32.917,31.839L33.001,31.614L33.085,31.388L33.172,31.164L33.259,30.94L33.348,30.717L33.438,30.494L33.53,30.273L33.623,30.051L33.717,29.831L33.812,29.611L33.909,29.392L34.007,29.174L34.106,28.956L34.207,28.739L34.308,28.523L34.412,28.307L34.516,28.093L34.622,27.878L34.728,27.665L34.837,27.453L34.946,27.241L35.057,27.03L35.169,26.819L35.282,26.61L35.396,26.401L35.512,26.193L35.628,25.985L35.746,25.779L35.865,25.573L35.986,25.368L36.107,25.164L36.23,24.961L36.354,24.758L36.479,24.556L36.606,24.355L36.733,24.155L36.862,23.956L36.992,23.757L37.123,23.56L37.255,23.363L37.388,23.167L37.523,22.972L37.658,22.777L37.795,22.584L37.933,22.391L38.072,22.2L38.212,22.009L38.353,21.819L38.496,21.63L38.639,21.441L38.784,21.254L38.929,21.068L39.076,20.882L39.224,20.698L39.373,20.514L39.523,20.331L39.674,20.149L39.826,19.968L39.979,19.788L40.133,19.609L40.289,19.431L40.445,19.254L40.602,19.077L40.761,18.902L40.92,18.728L41.081,18.554L41.242,18.382L41.405,18.21L41.568,18.04L41.733,17.87L41.898,17.702L42.065,17.534L42.233,17.367L42.401,17.202L42.571,17.037L42.741,16.874L42.913,16.711L43.085,16.55L43.259,16.389L43.433,16.23L43.608,16.071L43.785,15.914L43.962,15.758L44.14,15.602L44.319,15.448L44.499,15.295L44.68,15.143L44.862,14.992L45.045,14.842L45.229,14.693L45.413,14.545L45.599,14.398L45.785,14.253L45.972,14.108L46.161,13.965L46.35,13.822L46.54,13.681L46.731,13.541L46.922,13.402L47.115,13.264L47.308,13.127L47.503,12.992L47.698,12.857L47.894,12.724L48.091,12.592L48.288,12.461L48.487,12.331L48.686,12.202L48.886,12.075L49.087,11.948L49.289,11.823L49.492,11.699L49.695,11.576L49.899,11.455L50.104,11.334L50.31,11.215L50.516,11.097L50.724,10.981L50.932,10.865L51.141,10.751L51.35,10.638L51.561,10.526L51.772,10.415L51.984,10.306L52.196,10.197L52.409,10.091L52.624,9.985L52.838,9.881L53.054,9.777L53.27,9.676L53.487,9.575L53.705,9.476L53.923,9.378L54.142,9.281L54.362,9.186L54.582,9.092L54.804,8.999L55.025,8.907L55.248,8.817L55.471,8.728L55.695,8.641L55.919,8.554L56.145,8.47L56.37,8.386L56.597,8.304L56.824,8.223L57.052,8.144L57.28,8.065L57.509,7.989L57.739,7.913L57.969,7.839L58.2,7.767L58.431,7.695L58.663,7.625L58.896,7.557L59.129,7.49L59.363,7.424L59.597,7.36L59.832,7.297L60.068,7.236L60.304,7.176L60.54,7.117L60.778,7.06L61.016,7.004L61.254,6.95L61.493,6.897L61.732,6.846L61.972,6.796L62.213,6.747L62.454,6.7L62.695,6.655L62.937,6.611L63.18,6.568L63.423,6.527L63.666,6.487L63.91,6.449L64.155,6.412L64.4,6.377L64.646,6.344L64.892,6.312L65.138,6.281L65.385,6.252L65.632,6.224L65.88,6.198L66.129,6.174L66.377,6.151L66.626,6.13L66.876,6.11L67.126,6.092L67.377,6.075L67.628,6.06L67.879,6.046L68.131,6.034L68.383,6.024L68.635,6.015L68.888,6.008L69.142,6.002L69.395,5.998L69.65,5.996L69.904,5.995L70.158,5.996ZM69.679,10.576L69.453,10.578L69.229,10.581L69.004,10.586L68.781,10.593L68.557,10.601L68.334,10.61L68.111,10.62L67.889,10.632L67.667,10.646L67.445,10.661L67.224,10.677L67.003,10.694L66.783,10.713L66.563,10.733L66.344,10.755L66.124,10.778L65.906,10.802L65.688,10.828L65.47,10.855L65.252,10.883L65.036,10.913L64.819,10.944L64.603,10.976L64.387,11.01L64.172,11.045L63.958,11.081L63.743,11.119L63.53,11.158L63.316,11.198L63.104,11.24L62.891,11.282L62.679,11.327L62.468,11.372L62.257,11.419L62.047,11.467L61.837,11.516L61.627,11.566L61.418,11.618L61.21,11.671L61.002,11.725L60.795,11.781L60.588,11.837L60.381,11.895L60.175,11.955L59.97,12.015L59.765,12.077L59.561,12.14L59.357,12.204L59.154,12.269L58.951,12.336L58.749,12.403L58.548,12.472L58.347,12.543L58.146,12.614L57.946,12.686L57.747,12.76L57.548,12.835L57.35,12.911L57.152,12.989L56.955,13.067L56.759,13.147L56.563,13.227L56.368,13.309L56.173,13.392L55.979,13.477L55.786,13.562L55.593,13.649L55.4,13.736L55.209,13.825L55.018,13.915L54.827,14.006L54.638,14.098L54.449,14.192L54.26,14.286L54.072,14.382L53.885,14.478L53.699,14.576L53.513,14.675L53.328,14.775L53.143,14.876L52.959,14.978L52.776,15.081L52.594,15.185L52.412,15.291L52.231,15.397L52.05,15.504L51.871,15.613L51.692,15.722L51.513,15.833L51.336,15.945L51.159,16.057L50.983,16.171L50.807,16.286L50.632,16.402L50.458,16.519L50.285,16.637L50.113,16.755L49.941,16.875L49.77,16.996L49.599,17.118L49.43,17.241L49.261,17.365L49.093,17.49L48.926,17.616L48.76,17.742L48.594,17.87L48.429,17.999L48.265,18.129L48.102,18.26L47.939,18.391L47.778,18.524L47.617,18.657L47.457,18.792L47.297,18.928L47.139,19.064L46.981,19.201L46.825,19.34L46.669,19.479L46.514,19.619L46.359,19.76L46.206,19.902L46.053,20.045L45.902,20.189L45.751,20.333L45.601,20.479L45.452,20.625L45.304,20.773L45.156,20.921L45.01,21.07L44.864,21.22L44.72,21.371L44.576,21.522L44.433,21.675L44.291,21.828L44.15,21.983L44.01,22.138L43.871,22.294L43.732,22.45L43.595,22.608L43.459,22.766L43.323,22.926L43.188,23.086L43.055,23.247L42.922,23.408L42.791,23.571L42.66,23.734L42.53,23.898L42.401,24.063L42.273,24.229L42.147,24.395L42.021,24.562L41.896,24.73L41.772,24.899L41.649,25.068L41.527,25.239L41.406,25.41L41.286,25.582L41.168,25.754L41.05,25.927L40.933,26.101L40.817,26.276L40.702,26.452L40.589,26.628L40.476,26.805L40.364,26.982L40.253,27.161L40.144,27.34L40.035,27.519L39.928,27.7L39.822,27.881L39.716,28.063L39.612,28.245L39.509,28.428L39.407,28.612L39.306,28.797L39.206,28.982L39.107,29.168L39.009,29.354L38.913,29.541L38.817,29.729L38.723,29.918L38.629,30.107L38.537,30.296L38.446,30.487L38.356,30.678L38.267,30.869L38.18,31.062L38.093,31.255L38.008,31.448L37.923,31.642L37.84,31.837L37.758,32.032L37.678,32.228L37.598,32.424L37.52,32.621L37.442,32.819L37.366,33.017L37.291,33.216L37.217,33.415L37.145,33.615L37.074,33.816L37.003,34.017L36.934,34.218L36.867,34.42L36.8,34.623L36.735,34.826L36.671,35.03L36.608,35.234L36.546,35.439L36.486,35.644L36.426,35.85L36.368,36.057L36.312,36.264L36.256,36.471L36.202,36.679L36.149,36.887L36.097,37.096L36.047,37.306L35.998,37.516L35.95,37.726L35.903,37.937L35.858,38.148L35.813,38.36L35.771,38.573L35.729,38.785L35.689,38.999L35.65,39.212L35.612,39.427L35.576,39.641L35.541,39.856L35.507,40.072L35.475,40.288L35.444,40.505L35.414,40.721L35.386,40.939L35.359,41.157L35.333,41.375L35.309,41.593L35.286,41.813L35.264,42.032L35.244,42.252L35.225,42.472L35.208,42.693L35.192,42.914L35.177,43.136L35.163,43.358L35.151,43.58L35.141,43.803L35.132,44.026L35.124,44.249L35.117,44.473L35.112,44.698L35.109,44.922L35.107,45.148L35.106,45.373L35.107,45.598L35.109,45.824L35.112,46.048L35.117,46.273L35.124,46.497L35.132,46.72L35.141,46.943L35.151,47.166L35.163,47.388L35.177,47.61L35.192,47.832L35.208,48.053L35.225,48.274L35.244,48.494L35.264,48.714L35.286,48.933L35.309,49.153L35.333,49.371L35.359,49.589L35.386,49.807L35.414,50.025L35.444,50.241L35.475,50.458L35.507,50.674L35.541,50.89L35.576,51.105L35.612,51.319L35.65,51.534L35.689,51.747L35.729,51.961L35.771,52.173L35.813,52.386L35.858,52.598L35.903,52.809L35.95,53.02L35.998,53.23L36.047,53.44L36.097,53.65L36.149,53.859L36.202,54.067L36.256,54.275L36.312,54.482L36.368,54.689L36.426,54.896L36.486,55.102L36.546,55.307L36.608,55.512L36.671,55.716L36.735,55.92L36.8,56.123L36.867,56.326L36.934,56.528L37.003,56.729L37.074,56.93L37.145,57.131L37.217,57.331L37.291,57.53L37.366,57.729L37.442,57.927L37.52,58.125L37.598,58.322L37.678,58.518L37.758,58.714L37.84,58.909L37.923,59.104L38.008,59.298L38.093,59.492L38.18,59.684L38.267,59.877L38.356,60.068L38.446,60.259L38.537,60.45L38.629,60.639L38.723,60.828L38.817,61.017L38.913,61.205L39.009,61.392L39.107,61.578L39.206,61.764L39.306,61.949L39.407,62.134L39.509,62.318L39.612,62.501L39.716,62.683L39.822,62.865L39.928,63.046L40.035,63.227L40.144,63.406L40.254,63.585L40.364,63.764L40.476,63.941L40.589,64.118L40.702,64.294L40.817,64.47L40.933,64.645L41.05,64.819L41.168,64.992L41.286,65.164L41.406,65.336L41.527,65.507L41.649,65.678L41.772,65.847L41.896,66.016L42.021,66.184L42.147,66.351L42.273,66.517L42.401,66.683L42.53,66.848L42.66,67.012L42.791,67.175L42.922,67.338L43.055,67.499L43.188,67.66L43.323,67.82L43.459,67.98L43.595,68.138L43.732,68.296L43.871,68.452L44.01,68.608L44.15,68.763L44.291,68.918L44.433,69.071L44.576,69.224L44.72,69.375L44.864,69.526L45.01,69.676L45.156,69.825L45.304,69.973L45.452,70.121L45.601,70.267L45.751,70.413L45.902,70.557L46.053,70.701L46.206,70.844L46.359,70.986L46.514,71.127L46.669,71.267L46.825,71.406L46.981,71.545L47.139,71.682L47.297,71.818L47.457,71.954L47.617,72.088L47.778,72.222L47.939,72.355L48.102,72.486L48.265,72.617L48.429,72.747L48.594,72.876L48.76,73.004L48.926,73.13L49.093,73.256L49.261,73.381L49.43,73.505L49.599,73.628L49.77,73.75L49.941,73.871L50.112,73.991L50.285,74.109L50.458,74.227L50.632,74.344L50.807,74.46L50.983,74.575L51.159,74.689L51.336,74.801L51.513,74.913L51.692,75.024L51.871,75.133L52.05,75.242L52.231,75.349L52.412,75.455L52.594,75.561L52.776,75.665L52.959,75.768L53.143,75.87L53.328,75.971L53.513,76.071L53.699,76.17L53.885,76.268L54.072,76.364L54.26,76.46L54.449,76.554L54.638,76.648L54.827,76.74L55.018,76.831L55.209,76.921L55.4,77.01L55.593,77.097L55.785,77.184L55.979,77.269L56.173,77.354L56.368,77.437L56.563,77.519L56.759,77.599L56.955,77.679L57.152,77.757L57.35,77.835L57.548,77.911L57.747,77.986L57.946,78.06L58.146,78.132L58.347,78.203L58.548,78.274L58.749,78.343L58.951,78.41L59.154,78.477L59.357,78.542L59.561,78.606L59.765,78.669L59.97,78.731L60.175,78.791L60.381,78.851L60.588,78.909L60.795,78.965L61.002,79.021L61.21,79.075L61.418,79.128L61.627,79.18L61.837,79.23L62.047,79.279L62.257,79.327L62.468,79.374L62.679,79.419L62.891,79.464L63.104,79.506L63.316,79.548L63.53,79.588L63.743,79.627L63.958,79.665L64.172,79.701L64.388,79.736L64.603,79.77L64.819,79.802L65.036,79.833L65.252,79.863L65.47,79.891L65.688,79.918L65.906,79.944L66.124,79.968L66.344,79.991L66.563,80.013L66.783,80.033L67.003,80.052L67.224,80.069L67.445,80.085L67.667,80.1L67.889,80.114L68.111,80.126L68.334,80.136L68.557,80.145L68.781,80.153L69.004,80.16L69.229,80.165L69.453,80.168L69.679,80.17L69.904,80.171L70.129,80.17L70.355,80.168L70.579,80.165L70.804,80.16L71.028,80.153L71.251,80.145L71.474,80.136L71.697,80.126L71.919,80.114L72.141,80.1L72.363,80.085L72.584,80.069L72.805,80.052L73.025,80.033L73.245,80.013L73.464,79.991L73.684,79.968L73.902,79.944L74.12,79.918L74.338,79.891L74.556,79.863L74.772,79.833L74.989,79.802L75.205,79.77L75.42,79.736L75.636,79.701L75.85,79.665L76.065,79.627L76.278,79.588L76.492,79.548L76.704,79.506L76.917,79.464L77.129,79.419L77.34,79.374L77.551,79.327L77.761,79.279L77.971,79.23L78.181,79.18L78.39,79.128L78.598,79.075L78.806,79.021L79.013,78.965L79.22,78.909L79.427,78.851L79.633,78.791L79.838,78.731L80.043,78.669L80.247,78.606L80.451,78.542L80.654,78.477L80.857,78.41L81.059,78.343L81.26,78.274L81.461,78.203L81.662,78.132L81.862,78.06L82.061,77.986L82.26,77.911L82.458,77.835L82.656,77.757L82.853,77.679L83.049,77.599L83.245,77.519L83.44,77.437L83.635,77.354L83.829,77.269L84.023,77.184L84.215,77.097L84.408,77.01L84.599,76.921L84.79,76.831L84.981,76.74L85.17,76.648L85.359,76.554L85.548,76.46L85.736,76.364L85.923,76.268L86.109,76.17L86.295,76.071L86.48,75.971L86.665,75.87L86.849,75.768L87.032,75.665L87.214,75.561L87.396,75.455L87.577,75.349L87.758,75.242L87.937,75.133L88.116,75.023L88.295,74.913L88.472,74.801L88.649,74.689L88.825,74.575L89.001,74.46L89.176,74.344L89.35,74.227L89.523,74.109L89.695,73.991L89.867,73.871L90.038,73.75L90.209,73.628L90.378,73.505L90.547,73.381L90.715,73.256L90.882,73.13L91.048,73.004L91.214,72.876L91.379,72.747L91.543,72.617L91.706,72.486L91.869,72.355L92.03,72.222L92.191,72.088L92.351,71.954L92.511,71.818L92.669,71.682L92.827,71.545L92.983,71.406L93.139,71.267L93.294,71.127L93.449,70.986L93.602,70.844L93.755,70.701L93.906,70.557L94.057,70.413L94.207,70.267L94.356,70.121L94.504,69.973L94.652,69.825L94.798,69.676L94.944,69.526L95.088,69.375L95.232,69.224L95.375,69.071L95.517,68.918L95.658,68.763L95.798,68.608L95.937,68.452L96.076,68.296L96.213,68.138L96.349,67.98L96.485,67.82L96.62,67.66L96.753,67.5L96.886,67.338L97.017,67.175L97.148,67.012L97.278,66.848L97.407,66.683L97.535,66.517L97.661,66.351L97.787,66.184L97.912,66.016L98.036,65.847L98.159,65.678L98.281,65.507L98.402,65.336L98.522,65.164L98.64,64.992L98.758,64.819L98.875,64.645L98.991,64.47L99.106,64.294L99.219,64.118L99.332,63.941L99.444,63.764L99.554,63.585L99.664,63.406L99.773,63.227L99.88,63.046L99.986,62.865L100.092,62.683L100.196,62.501L100.299,62.318L100.401,62.134L100.502,61.949L100.602,61.764L100.701,61.578L100.799,61.392L100.895,61.205L100.991,61.017L101.085,60.828L101.179,60.639L101.271,60.45L101.362,60.259L101.452,60.068L101.541,59.877L101.628,59.684L101.715,59.492L101.8,59.298L101.885,59.104L101.968,58.909L102.05,58.714L102.13,58.518L102.21,58.322L102.288,58.125L102.366,57.927L102.442,57.729L102.517,57.53L102.591,57.331L102.663,57.131L102.734,56.93L102.805,56.729L102.874,56.528L102.941,56.326L103.008,56.123L103.073,55.92L103.137,55.716L103.2,55.512L103.262,55.307L103.322,55.102L103.382,54.896L103.44,54.689L103.496,54.482L103.552,54.275L103.606,54.067L103.659,53.859L103.711,53.65L103.761,53.44L103.81,53.23L103.858,53.02L103.905,52.809L103.95,52.598L103.995,52.386L104.037,52.173L104.079,51.961L104.119,51.747L104.158,51.534L104.196,51.319L104.232,51.105L104.267,50.89L104.301,50.674L104.333,50.458L104.364,50.241L104.394,50.024L104.422,49.807L104.449,49.589L104.475,49.371L104.499,49.153L104.522,48.934L104.544,48.714L104.564,48.494L104.583,48.274L104.6,48.053L104.616,47.832L104.631,47.61L104.645,47.388L104.657,47.166L104.667,46.943L104.676,46.72L104.684,46.497L104.691,46.273L104.696,46.048L104.699,45.824L104.701,45.598L104.702,45.373L104.701,45.148L104.699,44.922L104.696,44.698L104.691,44.473L104.684,44.249L104.676,44.026L104.667,43.803L104.657,43.58L104.645,43.358L104.631,43.136L104.616,42.914L104.6,42.693L104.583,42.472L104.564,42.252L104.544,42.032L104.522,41.812L104.499,41.593L104.475,41.375L104.449,41.157L104.422,40.939L104.394,40.722L104.364,40.505L104.333,40.288L104.301,40.072L104.267,39.857L104.232,39.641L104.196,39.427L104.158,39.212L104.119,38.999L104.079,38.785L104.037,38.573L103.995,38.36L103.95,38.148L103.905,37.937L103.858,37.726L103.81,37.516L103.761,37.306L103.711,37.096L103.659,36.887L103.606,36.679L103.552,36.471L103.496,36.264L103.44,36.057L103.382,35.85L103.322,35.644L103.262,35.439L103.2,35.234L103.137,35.03L103.073,34.826L103.008,34.623L102.941,34.42L102.874,34.218L102.805,34.017L102.734,33.816L102.663,33.615L102.591,33.415L102.517,33.216L102.442,33.017L102.366,32.819L102.288,32.621L102.21,32.424L102.13,32.228L102.05,32.032L101.968,31.837L101.885,31.642L101.8,31.448L101.715,31.254L101.628,31.062L101.541,30.869L101.452,30.678L101.362,30.487L101.271,30.296L101.179,30.107L101.085,29.918L100.991,29.729L100.895,29.541L100.799,29.354L100.701,29.168L100.602,28.982L100.502,28.797L100.401,28.612L100.299,28.428L100.196,28.245L100.092,28.063L99.986,27.881L99.88,27.7L99.773,27.519L99.664,27.34L99.555,27.161L99.444,26.982L99.332,26.805L99.219,26.628L99.106,26.452L98.991,26.276L98.875,26.101L98.758,25.927L98.64,25.754L98.522,25.582L98.402,25.41L98.281,25.239L98.159,25.068L98.036,24.899L97.912,24.73L97.787,24.562L97.661,24.395L97.535,24.229L97.407,24.063L97.278,23.898L97.148,23.734L97.017,23.571L96.886,23.408L96.753,23.246L96.62,23.086L96.485,22.926L96.349,22.766L96.213,22.608L96.076,22.45L95.937,22.294L95.798,22.138L95.658,21.983L95.517,21.828L95.375,21.675L95.232,21.522L95.088,21.371L94.944,21.22L94.798,21.07L94.652,20.921L94.504,20.773L94.356,20.625L94.207,20.479L94.057,20.333L93.906,20.189L93.755,20.045L93.602,19.902L93.449,19.76L93.294,19.619L93.139,19.479L92.983,19.34L92.827,19.201L92.669,19.064L92.511,18.928L92.351,18.792L92.191,18.657L92.031,18.524L91.869,18.391L91.706,18.26L91.543,18.129L91.379,17.999L91.214,17.87L91.048,17.742L90.882,17.616L90.715,17.49L90.547,17.365L90.378,17.241L90.209,17.118L90.038,16.996L89.867,16.875L89.695,16.755L89.523,16.637L89.35,16.519L89.176,16.402L89.001,16.286L88.825,16.171L88.649,16.057L88.472,15.945L88.295,15.833L88.116,15.723L87.937,15.613L87.758,15.504L87.577,15.397L87.396,15.291L87.214,15.185L87.032,15.081L86.849,14.978L86.665,14.876L86.48,14.775L86.295,14.675L86.109,14.576L85.923,14.478L85.736,14.382L85.548,14.286L85.359,14.192L85.17,14.098L84.981,14.006L84.79,13.915L84.599,13.825L84.408,13.736L84.215,13.649L84.023,13.562L83.829,13.477L83.635,13.392L83.44,13.309L83.245,13.227L83.049,13.147L82.853,13.067L82.656,12.989L82.458,12.911L82.26,12.835L82.061,12.76L81.862,12.686L81.662,12.614L81.461,12.543L81.26,12.472L81.059,12.403L80.857,12.336L80.654,12.269L80.451,12.204L80.247,12.14L80.043,12.077L79.838,12.015L79.633,11.955L79.427,11.895L79.22,11.837L79.013,11.781L78.806,11.725L78.598,11.671L78.39,11.618L78.181,11.566L77.971,11.516L77.761,11.467L77.551,11.419L77.34,11.372L77.129,11.327L76.917,11.282L76.704,11.24L76.492,11.198L76.278,11.158L76.065,11.119L75.85,11.081L75.636,11.045L75.421,11.01L75.205,10.976L74.989,10.944L74.772,10.913L74.556,10.883L74.338,10.855L74.12,10.828L73.902,10.802L73.684,10.778L73.464,10.755L73.245,10.733L73.025,10.713L72.805,10.694L72.584,10.677L72.363,10.661L72.141,10.646L71.919,10.632L71.697,10.62L71.474,10.61L71.251,10.601L71.027,10.593L70.804,10.586L70.579,10.581L70.355,10.578L70.129,10.576L69.904,10.575L69.679,10.576Z" style="fill:rgb(167,214,242);"/>
                </g>
            </g>
        </g>
    </g>
</svg>
